<?xml version="1.0" encoding="iso-8859-1"?>
<!-- Uploaded to: SVG Repo, www.svgrepo.com, Generator: SVG Repo Mixer Tools -->
<svg fill="currentColor" height="800px" width="800px" version="1.1" id="Layer_1" xmlns="http://www.w3.org/2000/svg" xmlns:xlink="http://www.w3.org/1999/xlink" 
	 viewBox="0 0 512 512" xml:space="preserve">
<g>
	<g>
		<g>
			<path d="M256.008,473.75c-25.384,0-49.555-7.128-70.562-20.717c-19.234,12.445-41.13,19.454-64.179,20.548
				C160.427,497.918,206.597,512,256,512s95.573-14.082,134.733-38.42c-23.045-1.093-44.937-8.096-64.177-20.537
				C305.551,466.626,281.387,473.75,256.008,473.75z"/>
			<path d="M397.104,401.28c-25.379,0-49.542-7.123-70.548-20.707c-21.004,13.583-45.169,20.707-70.548,20.707
				c-25.386,0-49.555-7.128-70.562-20.716c-21,13.588-45.166,20.716-70.55,20.716c-25.386,0-49.556-7.128-70.563-20.716
				c-2.904,1.878-5.874,3.621-8.894,5.251c10.038,16.99,21.968,32.732,35.522,46.917c13.543,6.691,28.439,10.174,43.933,10.174
				c22.363,0,43.481-7.242,61.07-20.944c5.572-4.34,13.378-4.341,18.952-0.002c17.599,13.704,38.724,20.947,61.09,20.947
				c22.36,0,43.48-7.239,61.076-20.935c5.57-4.337,13.374-4.337,18.944,0c17.596,13.696,38.716,20.935,61.076,20.935
				c15.5,0,30.399-3.485,43.943-10.183c13.549-14.182,25.477-29.92,35.512-46.904c-3.021-1.633-5.994-3.377-8.901-5.257
				C446.655,394.152,422.489,401.28,397.104,401.28z"/>
			<path d="M397.104,328.81c-25.379,0-49.542-7.123-70.548-20.707c-21.004,13.583-45.169,20.707-70.548,20.707
				c-25.386,0-49.555-7.128-70.562-20.716c-21,13.588-45.166,20.716-70.55,20.716c-25.386,0-49.556-7.128-70.563-20.716
				c-10.948,7.085-22.764,12.394-35.157,15.872c3.26,11.825,7.35,23.307,12.2,34.384c4.679-2.563,9.185-5.515,13.477-8.858
				c5.572-4.34,13.381-4.341,18.952-0.002c17.598,13.702,38.722,20.946,61.09,20.946c22.365,0,43.481-7.242,61.07-20.944
				c5.572-4.34,13.378-4.341,18.952-0.002c17.599,13.702,38.724,20.946,61.09,20.946c22.361,0,43.48-7.239,61.076-20.935
				c5.57-4.337,13.374-4.337,18.944,0c17.596,13.696,38.715,20.935,61.076,20.935c22.365,0,43.483-7.242,61.071-20.944
				c5.572-4.34,13.38-4.341,18.952-0.002c4.298,3.347,8.809,6.301,13.494,8.866c4.852-11.079,8.943-22.562,12.203-34.389
				c-12.396-3.478-24.215-8.789-35.168-15.873C446.655,321.682,422.489,328.81,397.104,328.81z"/>
			<path d="M256,0C114.841,0,0,114.841,0,256c0,12.806,0.958,25.392,2.782,37.698c11.512-3.493,22.335-9.09,32.072-16.674
				c5.57-4.343,13.38-4.341,18.952-0.003c17.598,13.702,38.722,20.946,61.09,20.946c22.365,0,43.481-7.242,61.07-20.944
				c5.572-4.341,13.378-4.341,18.952-0.002c17.599,13.702,38.724,20.946,61.09,20.946c22.361,0,43.48-7.239,61.076-20.935
				c5.57-4.337,13.374-4.337,18.944,0c17.596,13.696,38.715,20.935,61.076,20.935c22.365,0,43.483-7.242,61.071-20.944
				c5.572-4.341,13.38-4.341,18.952-0.002c9.745,7.587,20.573,13.184,32.091,16.677C511.042,281.392,512,268.806,512,256
				C512,114.841,397.159,0,256,0z M328.727,184.591c-28.402,0-51.425-23.025-51.425-51.425s23.023-51.425,51.425-51.425
				s51.425,23.025,51.425,51.425S357.128,184.591,328.727,184.591z"/>
		</g>
	</g>
</g>
</svg>